<svg width="900" height="550" viewBox="0 0 900 550" xmlns="http://www.w3.org/2000/svg">
  <defs>
    <linearGradient id="archGrad1" x1="0%" y1="0%" x2="100%" y2="100%">
      <stop offset="0%" style="stop-color:#667eea;stop-opacity:1" />
      <stop offset="100%" style="stop-color:#764ba2;stop-opacity:1" />
    </linearGradient>
    <linearGradient id="archGrad2" x1="0%" y1="0%" x2="100%" y2="100%">
      <stop offset="0%" style="stop-color:#10b981;stop-opacity:1" />
      <stop offset="100%" style="stop-color:#059669;stop-opacity:1" />
    </linearGradient>
    <linearGradient id="archGrad3" x1="0%" y1="0%" x2="100%" y2="100%">
      <stop offset="0%" style="stop-color:#ef4444;stop-opacity:1" />
      <stop offset="100%" style="stop-color:#dc2626;stop-opacity:1" />
    </linearGradient>
    <marker id="arrowGreen" markerWidth="12" markerHeight="12" refX="11" refY="6" orient="auto">
      <polygon points="0 0, 12 6, 0 12" fill="#10b981" />
    </marker>
    <filter id="shadow">
      <feDropShadow dx="0" dy="4" stdDeviation="4" flood-opacity="0.3"/>
    </filter>
  </defs>
  
  <g transform="translate(100, 80)">
    <rect x="0" y="0" width="280" height="160" rx="15" fill="url(#archGrad1)" opacity="0.15" stroke="url(#archGrad1)" stroke-width="3" filter="url(#shadow)"/>
    <text x="140" y="35" text-anchor="middle" font-size="18" font-weight="bold" fill="#667eea">FRONTEND</text>
    <text x="140" y="55" text-anchor="middle" font-size="13" fill="#9ca3af">React 18 + Vite</text>
    
    <g transform="translate(50, 75)">
      <rect x="0" y="0" width="50" height="40" rx="8" fill="#667eea" opacity="0.3"/>
      <circle cx="25" cy="20" r="12" fill="#667eea"/>
      <circle cx="25" cy="20" r="6" fill="#fff" opacity="0.8"/>
      <text x="25" y="60" text-anchor="middle" font-size="11" fill="#d1d5db">Webcam</text>
    </g>
    
    <g transform="translate(115, 75)">
      <circle cx="25" cy="20" r="20" fill="#10b981" opacity="0.3"/>
      <path d="M 15 15 L 25 20 L 35 15 M 15 25 L 25 20 L 35 25" stroke="#10b981" stroke-width="3" fill="none"/>
      <text x="25" y="60" text-anchor="middle" font-size="11" fill="#d1d5db">WebSocket</text>
    </g>
    
    <g transform="translate(180, 75)">
      <rect x="5" y="5" width="40" height="30" rx="4" fill="#764ba2" opacity="0.3" stroke="#764ba2" stroke-width="2"/>
      <rect x="10" y="10" width="12" height="12" fill="#fbbf24" opacity="0.6"/>
      <rect x="23" y="10" width="12" height="12" fill="#ef4444" opacity="0.6"/>
      <rect x="10" y="23" width="12" height="7" fill="#10b981" opacity="0.6"/>
      <text x="25" y="60" text-anchor="middle" font-size="11" fill="#d1d5db">Canvas</text>
    </g>
  </g>
  
  <g>
    <path d="M 380 160 L 480 160" stroke="url(#archGrad2)" stroke-width="4" marker-end="url(#arrowGreen)" opacity="0.8">
      <animate attributeName="stroke-dasharray" values="0,400;400,0" dur="2s" repeatCount="indefinite"/>
      <animate attributeName="stroke-dashoffset" values="0;-400" dur="2s" repeatCount="indefinite"/>
    </path>
    <text x="430" y="145" text-anchor="middle" font-size="12" font-weight="bold" fill="#10b981">Base64 Frames</text>
    <text x="430" y="180" text-anchor="middle" font-size="11" fill="#9ca3af">WebSocket</text>
  </g>
  
  <g transform="translate(520, 80)">
    <rect x="0" y="0" width="280" height="160" rx="15" fill="url(#archGrad1)" opacity="0.15" stroke="#764ba2" stroke-width="3" filter="url(#shadow)"/>
    <text x="140" y="35" text-anchor="middle" font-size="18" font-weight="bold" fill="#764ba2">BACKEND</text>
    <text x="140" y="55" text-anchor="middle" font-size="13" fill="#9ca3af">FastAPI + Python 3.9+</text>
    
    <g transform="translate(40, 75)">
      <circle cx="25" cy="20" r="20" fill="#764ba2" opacity="0.3"/>
      <path d="M 15 20 L 25 10 L 35 20 L 25 30 Z" fill="#764ba2"/>
      <text x="25" y="60" text-anchor="middle" font-size="11" fill="#d1d5db">FastAPI</text>
    </g>
    
    <g transform="translate(110, 75)">
      <rect x="5" y="10" width="15" height="20" rx="3" fill="#f59e0b" opacity="0.6"/>
      <rect x="20" y="10" width="15" height="20" rx="3" fill="#f59e0b" opacity="0.8"/>
      <rect x="35" y="10" width="15" height="20" rx="3" fill="#f59e0b"/>
      <text x="27" y="60" text-anchor="middle" font-size="11" fill="#d1d5db">Queue</text>
    </g>
    
    <g transform="translate(185, 75)">
      <circle cx="15" cy="20" r="8" fill="#10b981" opacity="0.6">
        <animate attributeName="cy" values="20;15;20" dur="1s" repeatCount="indefinite"/>
      </circle>
      <circle cx="30" cy="20" r="8" fill="#10b981" opacity="0.8">
        <animate attributeName="cy" values="20;15;20" dur="1s" begin="0.3s" repeatCount="indefinite"/>
      </circle>
      <circle cx="45" cy="20" r="8" fill="#10b981">
        <animate attributeName="cy" values="20;15;20" dur="1s" begin="0.6s" repeatCount="indefinite"/>
      </circle>
      <text x="30" y="60" text-anchor="middle" font-size="11" fill="#d1d5db">Async</text>
    </g>
  </g>
  
  <g>
    <path d="M 660 240 L 660 310" stroke="url(#archGrad3)" stroke-width="4" marker-end="url(#arrowGreen)" opacity="0.8">
      <animate attributeName="stroke-dasharray" values="0,200;200,0" dur="1.5s" repeatCount="indefinite"/>
      <animate attributeName="stroke-dashoffset" values="0;-200" dur="1.5s" repeatCount="indefinite"/>
    </path>
    <text x="710" y="275" text-anchor="start" font-size="12" font-weight="bold" fill="#ef4444">Image + Prompt</text>
  </g>
  
  <g transform="translate(520, 320)">
    <rect x="0" y="0" width="280" height="160" rx="15" fill="url(#archGrad3)" opacity="0.15" stroke="url(#archGrad3)" stroke-width="3" filter="url(#shadow)"/>
    <text x="140" y="35" text-anchor="middle" font-size="18" font-weight="bold" fill="#ef4444">AI MODEL</text>
    <text x="140" y="55" text-anchor="middle" font-size="13" fill="#9ca3af">Stable Diffusion Turbo</text>
    
    <g transform="translate(35, 75)">
      <rect x="0" y="5" width="50" height="30" rx="5" fill="#ef4444" opacity="0.3" stroke="#ef4444" stroke-width="2"/>
      <rect x="5" y="10" width="8" height="20" fill="#ef4444" opacity="0.6"/>
      <rect x="15" y="10" width="8" height="20" fill="#ef4444" opacity="0.8"/>
      <rect x="25" y="10" width="8" height="20" fill="#ef4444"/>
      <rect x="35" y="10" width="8" height="20" fill="#ef4444" opacity="0.8"/>
      <text x="25" y="60" text-anchor="middle" font-size="11" fill="#d1d5db">GPU/CPU</text>
    </g>
    
    <g transform="translate(105, 75)">
      <circle cx="25" cy="20" r="18" fill="#a78bfa" opacity="0.3"/>
      <circle cx="15" cy="15" r="6" fill="#a78bfa"/>
      <circle cx="35" cy="15" r="6" fill="#a78bfa"/>
      <circle cx="25" cy="28" r="6" fill="#a78bfa"/>
      <line x1="15" y1="15" x2="25" y2="28" stroke="#a78bfa" stroke-width="2"/>
      <line x1="35" y1="15" x2="25" y2="28" stroke="#a78bfa" stroke-width="2"/>
      <text x="25" y="60" text-anchor="middle" font-size="11" fill="#d1d5db">512x512</text>
    </g>
    
    <g transform="translate(180, 75)">
      <path d="M 25 10 L 35 25 L 20 25 Z" fill="#fbbf24"/>
      <path d="M 20 25 L 30 35 L 15 35 Z" fill="#fbbf24" opacity="0.7"/>
      <text x="25" y="60" text-anchor="middle" font-size="11" fill="#d1d5db">1-step</text>
    </g>
  </g>
  
  <g>
    <path d="M 520 400 L 420 400 L 420 160 L 380 160" stroke="url(#archGrad2)" stroke-width="4" marker-end="url(#arrowGreen)" opacity="0.8">
      <animate attributeName="stroke-dasharray" values="0,800;800,0" dur="3s" repeatCount="indefinite"/>
      <animate attributeName="stroke-dashoffset" values="0;-800" dur="3s" repeatCount="indefinite"/>
    </path>
    <text x="420" y="280" text-anchor="middle" font-size="12" font-weight="bold" fill="#10b981" transform="rotate(-90 420 280)">Styled Frames</text>
  </g>
  
  <g transform="translate(100, 320)">
    <rect x="0" y="0" width="280" height="120" rx="15" fill="url(#archGrad2)" opacity="0.15" stroke="url(#archGrad2)" stroke-width="3" filter="url(#shadow)"/>
    <text x="140" y="35" text-anchor="middle" font-size="18" font-weight="bold" fill="#10b981">ANT MEDIA SERVER</text>
    <text x="140" y="55" text-anchor="middle" font-size="13" fill="#9ca3af">WebRTC Broadcasting</text>
    
    <g transform="translate(70, 70)">
      <circle cx="0" cy="0" r="20" fill="#10b981" opacity="0.2">
        <animate attributeName="r" values="20;30;20" dur="2s" repeatCount="indefinite"/>
        <animate attributeName="opacity" values="0.2;0;0.2" dur="2s" repeatCount="indefinite"/>
      </circle>
      <circle cx="0" cy="0" r="12" fill="#10b981"/>
      <circle cx="0" cy="0" r="6" fill="#fff" opacity="0.9">
        <animate attributeName="opacity" values="0.9;0.4;0.9" dur="1s" repeatCount="indefinite"/>
      </circle>
    </g>
    
    <g transform="translate(150, 70)">
      <circle cx="-10" cy="0" r="10" fill="#3b82f6" opacity="0.8"/>
      <circle cx="5" cy="0" r="10" fill="#3b82f6" opacity="0.9"/>
      <circle cx="20" cy="0" r="10" fill="#3b82f6"/>
      <text x="5" y="30" text-anchor="middle" font-size="11" fill="#d1d5db">Viewers</text>
    </g>
  </g>
  
  <g>
    <path d="M 240 240 L 240 320" stroke="url(#archGrad2)" stroke-width="3" stroke-dasharray="5,5" marker-end="url(#arrowGreen)" opacity="0.6"/>
    <text x="260" y="280" text-anchor="start" font-size="11" fill="#10b981">Stream</text>
  </g>
  
  <g transform="translate(50, 490)">
    <text x="0" y="0" font-size="13" font-weight="bold" fill="#9ca3af">Performance:</text>
    <text x="0" y="20" font-size="11" fill="#10b981">GPU: 0.3-0.8s latency</text>
    <text x="200" y="20" font-size="11" fill="#f59e0b">CPU: 2-5s latency</text>
    <text x="400" y="20" font-size="11" fill="#3b82f6">Output: 1-3 FPS (GPU)</text>
    <text x="650" y="20" font-size="11" fill="#ef4444">Resolution: 512x512</text>
  </g>
</svg>
