<svg width="800" height="200" viewBox="0 0 800 200" xmlns="http://www.w3.org/2000/svg">
  <defs>
    <linearGradient id="featGrad1" x1="0%" y1="0%" x2="100%" y2="100%">
      <stop offset="0%" style="stop-color:#667eea;stop-opacity:1" />
      <stop offset="100%" style="stop-color:#764ba2;stop-opacity:1" />
    </linearGradient>
    <linearGradient id="featGrad2" x1="0%" y1="0%" x2="100%" y2="100%">
      <stop offset="0%" style="stop-color:#10b981;stop-opacity:1" />
      <stop offset="100%" style="stop-color:#059669;stop-opacity:1" />
    </linearGradient>
    <linearGradient id="featGrad3" x1="0%" y1="0%" x2="100%" y2="100%">
      <stop offset="0%" style="stop-color:#ef4444;stop-opacity:1" />
      <stop offset="100%" style="stop-color:#dc2626;stop-opacity:1" />
    </linearGradient>
    <linearGradient id="featGrad4" x1="0%" y1="0%" x2="100%" y2="100%">
      <stop offset="0%" style="stop-color:#f59e0b;stop-opacity:1" />
      <stop offset="100%" style="stop-color:#d97706;stop-opacity:1" />
    </linearGradient>
  </defs>
  
  <g transform="translate(100, 60)">
    <circle cx="0" cy="0" r="45" fill="url(#featGrad1)" opacity="0.2"/>
    <rect x="-25" y="-20" width="50" height="35" rx="8" fill="url(#featGrad1)" opacity="0.8"/>
    <rect x="-20" y="-15" width="40" height="25" rx="5" fill="#1a1a2e"/>
    <circle cx="0" cy="-2" r="12" fill="url(#featGrad1)" opacity="0.6"/>
    <circle cx="0" cy="-2" r="8" fill="#fff" opacity="0.8"/>
    <circle cx="-3" cy="-5" r="3" fill="#fff" opacity="0.9"/>
    <circle cx="12" cy="-12" r="3" fill="#ef4444">
      <animate attributeName="opacity" values="1;0.3;1" dur="1.5s" repeatCount="indefinite"/>
    </circle>
    <rect x="-15" y="20" width="30" height="4" rx="2" fill="url(#featGrad1)" opacity="0.6"/>
    <text x="0" y="65" text-anchor="middle" font-size="14" font-weight="bold" fill="#667eea">Live Video</text>
    <text x="0" y="82" text-anchor="middle" font-size="11" fill="#9ca3af">640x480 @ 5 FPS</text>
  </g>
  
  <g transform="translate(300, 60)">
    <circle cx="0" cy="0" r="45" fill="url(#featGrad1)" opacity="0.2"/>
    <circle cx="0" cy="0" r="30" fill="url(#featGrad1)" opacity="0.3"/>
    <circle cx="-15" cy="-10" r="8" fill="url(#featGrad1)"/>
    <circle cx="15" cy="-10" r="8" fill="url(#featGrad1)"/>
    <circle cx="0" cy="12" r="8" fill="url(#featGrad1)"/>
    <circle cx="-12" cy="8" r="6" fill="#764ba2" opacity="0.7"/>
    <circle cx="12" cy="8" r="6" fill="#764ba2" opacity="0.7"/>
    <line x1="-15" y1="-10" x2="0" y2="12" stroke="#667eea" stroke-width="2" opacity="0.6"/>
    <line x1="15" y1="-10" x2="0" y2="12" stroke="#667eea" stroke-width="2" opacity="0.6"/>
    <circle cx="0" cy="0" r="3" fill="#fbbf24">
      <animate attributeName="r" values="3;6;3" dur="2s" repeatCount="indefinite"/>
      <animate attributeName="opacity" values="1;0.3;1" dur="2s" repeatCount="indefinite"/>
    </circle>
    <text x="0" y="65" text-anchor="middle" font-size="14" font-weight="bold" fill="#764ba2">AI Transform</text>
    <text x="0" y="82" text-anchor="middle" font-size="11" fill="#9ca3af">SD Turbo 1-step</text>
  </g>
  
  <g transform="translate(500, 60)">
    <circle cx="0" cy="0" r="45" fill="url(#featGrad2)" opacity="0.2"/>
    <ellipse cx="0" cy="-5" rx="12" ry="18" fill="url(#featGrad2)" opacity="0.8"/>
    <rect x="-3" y="13" width="6" height="8" rx="1" fill="url(#featGrad2)" opacity="0.8"/>
    <path d="M -15 8 Q -15 -5 -12 -5" stroke="url(#featGrad2)" stroke-width="3" fill="none" stroke-linecap="round" opacity="0.6">
      <animate attributeName="opacity" values="0.6;0.2;0.6" dur="1.5s" repeatCount="indefinite"/>
    </path>
    <path d="M 15 8 Q 15 -5 12 -5" stroke="url(#featGrad2)" stroke-width="3" fill="none" stroke-linecap="round" opacity="0.6">
      <animate attributeName="opacity" values="0.6;0.2;0.6" dur="1.5s" begin="0.3s" repeatCount="indefinite"/>
    </path>
    <path d="M -20 12 Q -20 -8 -15 -8" stroke="url(#featGrad2)" stroke-width="2" fill="none" stroke-linecap="round" opacity="0.4">
      <animate attributeName="opacity" values="0.4;0.1;0.4" dur="1.5s" begin="0.6s" repeatCount="indefinite"/>
    </path>
    <path d="M 20 12 Q 20 -8 15 -8" stroke="url(#featGrad2)" stroke-width="2" fill="none" stroke-linecap="round" opacity="0.4">
      <animate attributeName="opacity" values="0.4;0.1;0.4" dur="1.5s" begin="0.9s" repeatCount="indefinite"/>
    </path>
    <path d="M -10 21 L 0 28 L 10 21" stroke="url(#featGrad2)" stroke-width="3" fill="none" stroke-linecap="round"/>
    <text x="0" y="65" text-anchor="middle" font-size="14" font-weight="bold" fill="#10b981">Voice Control</text>
    <text x="0" y="82" text-anchor="middle" font-size="11" fill="#9ca3af">Web Speech API</text>
  </g>
  
  <g transform="translate(700, 60)">
    <circle cx="0" cy="0" r="45" fill="url(#featGrad3)" opacity="0.2"/>
    <circle cx="0" cy="0" r="25" fill="url(#featGrad3)" opacity="0.3">
      <animate attributeName="r" values="25;35;25" dur="2s" repeatCount="indefinite"/>
      <animate attributeName="opacity" values="0.3;0;0.3" dur="2s" repeatCount="indefinite"/>
    </circle>
    <circle cx="0" cy="0" r="18" fill="url(#featGrad3)" opacity="0.5">
      <animate attributeName="r" values="18;28;18" dur="2s" begin="0.5s" repeatCount="indefinite"/>
      <animate attributeName="opacity" values="0.5;0;0.5" dur="2s" begin="0.5s" repeatCount="indefinite"/>
    </circle>
    <circle cx="0" cy="0" r="12" fill="url(#featGrad3)"/>
    <circle cx="0" cy="0" r="6" fill="#fff" opacity="0.9">
      <animate attributeName="opacity" values="0.9;0.5;0.9" dur="1s" repeatCount="indefinite"/>
    </circle>
    <text x="0" y="65" text-anchor="middle" font-size="14" font-weight="bold" fill="#ef4444">Broadcast</text>
    <text x="0" y="82" text-anchor="middle" font-size="11" fill="#9ca3af">WebRTC Ready</text>
  </g>
</svg>
