<svg width="280" height="280" viewBox="0 0 280 280" xmlns="http://www.w3.org/2000/svg">
  <defs>
    <linearGradient id="grad1" x1="0%" y1="0%" x2="100%" y2="100%">
      <stop offset="0%" style="stop-color:#667eea;stop-opacity:1" />
      <stop offset="50%" style="stop-color:#764ba2;stop-opacity:1" />
      <stop offset="100%" style="stop-color:#f093fb;stop-opacity:1" />
    </linearGradient>
    <linearGradient id="grad2" x1="0%" y1="0%" x2="100%" y2="0%">
      <stop offset="0%" style="stop-color:#4facfe;stop-opacity:1" />
      <stop offset="100%" style="stop-color:#00f2fe;stop-opacity:1" />
    </linearGradient>
    <filter id="glow">
      <feGaussianBlur stdDeviation="4" result="coloredBlur"/>
      <feMerge>
        <feMergeNode in="coloredBlur"/>
        <feMergeNode in="SourceGraphic"/>
      </feMerge>
    </filter>
  </defs>
  
  <circle cx="140" cy="140" r="120" fill="url(#grad1)" opacity="0.15"/>
  <circle cx="140" cy="140" r="100" fill="none" stroke="url(#grad1)" stroke-width="3" opacity="0.4" stroke-dasharray="5,5">
    <animateTransform attributeName="transform" type="rotate" from="0 140 140" to="360 140 140" dur="20s" repeatCount="indefinite"/>
  </circle>
  
  <rect x="80" y="100" width="120" height="80" rx="15" fill="url(#grad1)" opacity="0.9" filter="url(#glow)"/>
  <rect x="85" y="105" width="110" height="70" rx="12" fill="#1a1a2e" opacity="0.8"/>
  
  <circle cx="140" cy="140" r="35" fill="url(#grad2)" opacity="0.3"/>
  <circle cx="140" cy="140" r="30" fill="none" stroke="url(#grad2)" stroke-width="4"/>
  <circle cx="140" cy="140" r="20" fill="url(#grad1)" opacity="0.6">
    <animate attributeName="r" values="20;22;20" dur="2s" repeatCount="indefinite"/>
  </circle>
  <circle cx="140" cy="140" r="12" fill="#fff" opacity="0.8"/>
  
  <ellipse cx="135" cy="135" rx="8" ry="10" fill="#fff" opacity="0.6" transform="rotate(-45 135 135)"/>
  
  <circle cx="175" cy="115" r="6" fill="#ef4444" opacity="0.9">
    <animate attributeName="opacity" values="0.9;0.3;0.9" dur="1.5s" repeatCount="indefinite"/>
  </circle>
  <rect x="95" y="115" width="25" height="8" rx="4" fill="url(#grad2)" opacity="0.7"/>
  
  <g opacity="0.8">
    <path d="M 60 80 L 65 85 L 60 90 L 55 85 Z" fill="#fbbf24">
      <animate attributeName="opacity" values="0.8;0.3;0.8" dur="1s" repeatCount="indefinite"/>
    </path>
    <path d="M 220 80 L 225 85 L 220 90 L 215 85 Z" fill="#fbbf24">
      <animate attributeName="opacity" values="0.3;0.8;0.3" dur="1s" repeatCount="indefinite"/>
    </path>
    <path d="M 70 180 L 75 185 L 70 190 L 65 185 Z" fill="#a78bfa">
      <animate attributeName="opacity" values="0.8;0.3;0.8" dur="1.2s" repeatCount="indefinite"/>
    </path>
    <path d="M 210 180 L 215 185 L 210 190 L 205 185 Z" fill="#a78bfa">
      <animate attributeName="opacity" values="0.3;0.8;0.3" dur="1.2s" repeatCount="indefinite"/>
    </path>
  </g>
  
  <g opacity="0.6">
    <path d="M 140 200 Q 120 210 100 200" stroke="url(#grad2)" stroke-width="3" fill="none" stroke-linecap="round">
      <animate attributeName="opacity" values="0.6;0.2;0.6" dur="2s" repeatCount="indefinite"/>
    </path>
    <path d="M 140 210 Q 115 225 90 210" stroke="url(#grad2)" stroke-width="3" fill="none" stroke-linecap="round">
      <animate attributeName="opacity" values="0.4;0.1;0.4" dur="2s" begin="0.3s" repeatCount="indefinite"/>
    </path>
    <path d="M 140 200 Q 160 210 180 200" stroke="url(#grad2)" stroke-width="3" fill="none" stroke-linecap="round">
      <animate attributeName="opacity" values="0.6;0.2;0.6" dur="2s" repeatCount="indefinite"/>
    </path>
    <path d="M 140 210 Q 165 225 190 210" stroke="url(#grad2)" stroke-width="3" fill="none" stroke-linecap="round">
      <animate attributeName="opacity" values="0.4;0.1;0.4" dur="2s" begin="0.3s" repeatCount="indefinite"/>
    </path>
  </g>
  
  <g transform="translate(200, 60)">
    <line x1="0" y1="0" x2="20" y2="20" stroke="url(#grad1)" stroke-width="3" stroke-linecap="round"/>
    <path d="M 22 18 L 26 22 L 22 26 L 18 22 Z" fill="#fbbf24" filter="url(#glow)">
      <animateTransform attributeName="transform" type="rotate" from="0 22 22" to="360 22 22" dur="3s" repeatCount="indefinite"/>
    </path>
  </g>
</svg>
